<svg xmlns="http://www.w3.org/2000/svg" viewBox="0 0 60 80"><rect x="2" y="6" width="56" height="72" rx="7" fill="#2f7a64" stroke="#2a211b" stroke-width="1.5"/><rect x="2" y="2" width="56" height="72" rx="7" fill="#f3ead6" stroke="#2a211b" stroke-width="1.5"/><path d="M10 68 L52 46" stroke="#2f7a45" stroke-width="4" stroke-linecap="round" fill="none"/><path d="M27 59 l1.5 -3 M41 51.6 l1.5 -3" stroke="#f3ead6" stroke-width="1" fill="none"/><path d="M44 50 q6 -10 12 -9 q-4 6 -12 9z" fill="#2f7a45"/><path d="M17 49 L5 58 L9 61 L21 53z" fill="#8a5a34"/><ellipse cx="28" cy="43" rx="13" ry="10.5" fill="#8a5a34" transform="rotate(-18 28 43)"/><path d="M22 50 q9 6 18 -3 q-2 -6 -8 -7 q-7 2 -10 10z" fill="#e6d9bd"/><path d="M18 44 q8 -10 19 -6 q-4 9 -19 6z" fill="#9a4a22"/><path d="M22 43.5 l12 -3 M23 46 l11 -3" stroke="#f3ead6" stroke-width="0.9" fill="none"/><circle cx="40" cy="30" r="8.4" fill="#f3ead6"/><path d="M31.8 29.5 a8.4 8.4 0 0 1 16.6 -1.6 q-8 -1.5 -16.6 1.6z" fill="#9a4a22"/><circle cx="39" cy="33" r="2.1" fill="#1f1a17"/><path d="M44 36 q2 4 -2 6 q-3 -1 -3 -3z" fill="#1f1a17"/><circle cx="43.6" cy="29.4" r="1.25" fill="#1f1a17"/><path d="M47.8 30 l5 1.2 l-4.6 1.8z" fill="#1f1a17"/><path d="M28 53 l-1 4 M33 52 l0 4" stroke="#1f1a17" stroke-width="1.2" stroke-linecap="round" fill="none"/><text x="5.6" y="11.6" font-size="8.6" font-weight="600" font-family="'IBM Plex Mono',ui-monospace,monospace" fill="#2f7a45">1</text><rect x="12.5" y="5.4" width="2.2" height="6.4" rx="1.1" fill="#2f7a45"/></svg>