<svg xmlns="http://www.w3.org/2000/svg" viewBox="0 0 60 80"><rect x="2" y="6" width="56" height="72" rx="7" fill="#2f7a64" stroke="#2a211b" stroke-width="1.5"/><rect x="2" y="2" width="56" height="72" rx="7" fill="#f3ead6" stroke="#2a211b" stroke-width="1.5"/><circle cx="18" cy="24" r="7.5" fill="#2a4f8f"/><circle cx="18" cy="24" r="4.95" fill="#f3ead6"/><circle cx="18" cy="24" r="3.3" fill="#2a4f8f"/><circle cx="18" cy="24" r="1.13" fill="#f3ead6"/><circle cx="42" cy="24" r="7.5" fill="#2f7a45"/><circle cx="42" cy="24" r="4.95" fill="#f3ead6"/><circle cx="42" cy="24" r="3.3" fill="#2f7a45"/><circle cx="42" cy="24" r="1.13" fill="#f3ead6"/><circle cx="30" cy="40" r="7.5" fill="#b3322a"/><circle cx="30" cy="40" r="4.95" fill="#f3ead6"/><circle cx="30" cy="40" r="3.3" fill="#b3322a"/><circle cx="30" cy="40" r="1.13" fill="#f3ead6"/><circle cx="18" cy="56" r="7.5" fill="#2f7a45"/><circle cx="18" cy="56" r="4.95" fill="#f3ead6"/><circle cx="18" cy="56" r="3.3" fill="#2f7a45"/><circle cx="18" cy="56" r="1.13" fill="#f3ead6"/><circle cx="42" cy="56" r="7.5" fill="#2a4f8f"/><circle cx="42" cy="56" r="4.95" fill="#f3ead6"/><circle cx="42" cy="56" r="3.3" fill="#2a4f8f"/><circle cx="42" cy="56" r="1.13" fill="#f3ead6"/><text x="5.6" y="11.6" font-size="8.6" font-weight="600" font-family="'IBM Plex Mono',ui-monospace,monospace" fill="#2a4f8f">5</text><circle cx="13.4" cy="8.4" r="1.9" fill="#2a4f8f"/></svg>