<svg xmlns="http://www.w3.org/2000/svg" viewBox="0 0 100 110"><path d="M40 92 L39 97 M60 92 L61 97" stroke="#f3ead6" stroke-width="5.6" fill="none" stroke-linecap="round" stroke-linejoin="round"/><path d="M40 92 L39 97 M60 92 L61 97" stroke="#2a211b" stroke-width="3.2" fill="none" stroke-linecap="round" stroke-linejoin="round"/><ellipse cx="38" cy="99" rx="7" ry="3.6" fill="#2a211b" stroke="#f3ead6" stroke-width="1.2"/><ellipse cx="62" cy="99" rx="7" ry="3.6" fill="#2a211b" stroke="#f3ead6" stroke-width="1.2"/><path d="M21 56 Q12 62 11 72" stroke="#f3ead6" stroke-width="5.6" fill="none" stroke-linecap="round" stroke-linejoin="round"/><path d="M21 56 Q12 62 11 72" stroke="#2a211b" stroke-width="3.2" fill="none" stroke-linecap="round" stroke-linejoin="round"/><path d="M79 56 Q88 62 89 72" stroke="#f3ead6" stroke-width="5.6" fill="none" stroke-linecap="round" stroke-linejoin="round"/><path d="M79 56 Q88 62 89 72" stroke="#2a211b" stroke-width="3.2" fill="none" stroke-linecap="round" stroke-linejoin="round"/><g transform="translate(20 12)"><rect x="2" y="6" width="56" height="72" rx="7" fill="#2f7a64" stroke="#2a211b" stroke-width="1.5"/><rect x="2" y="2" width="56" height="72" rx="7" fill="#f3ead6" stroke="#2a211b" stroke-width="1.5"/><ellipse cx="19" cy="21" rx="3.6" ry="4.6" fill="#2a211b"/><circle cx="20.2" cy="19.2" r="1.3" fill="#f3ead6"/><ellipse cx="41" cy="21" rx="3.6" ry="4.6" fill="#2a211b"/><circle cx="42.2" cy="19.2" r="1.3" fill="#f3ead6"/><ellipse cx="15" cy="28" rx="3.4" ry="2" fill="#d9667a" opacity="0.55"/><ellipse cx="45" cy="28" rx="3.4" ry="2" fill="#d9667a" opacity="0.55"/><path d="M25 28 q5 4 10 0" stroke="#2a211b" stroke-width="1.9" fill="none" stroke-linecap="round"/><text x="30" y="66" font-size="28" fill="#b3322a" text-anchor="middle" font-family="'Noto Serif SC','Songti SC','SimSun',serif" font-weight="900">中</text></g><circle cx="11" cy="74" r="3.6" fill="#f3ead6" stroke="#2a211b" stroke-width="1.6"/><circle cx="89" cy="74" r="3.6" fill="#f3ead6" stroke="#2a211b" stroke-width="1.6"/></svg>