<svg xmlns="http://www.w3.org/2000/svg" viewBox="0 0 60 80"><rect x="2" y="6" width="56" height="72" rx="7" fill="#2c4f8f" stroke="#1e3f7a" stroke-width="1.5"/><rect x="2" y="2" width="56" height="72" rx="7" fill="#f8f8f4" stroke="#1e3f7a" stroke-width="1.5"/><rect x="27.3" y="11" width="5.4" height="16" rx="2.7" fill="#b8322a"/><rect x="29.4" y="13.4" width="1.2" height="11.2" rx="0.6" fill="#f8f8f4" opacity="0.55"/><rect x="26.6" y="11.3" width="6.8" height="1.8" rx="0.9" fill="#b8322a"/><rect x="27.3" y="11.85" width="5.4" height="0.7" fill="#f8f8f4" opacity="0.8"/><rect x="26.6" y="18.1" width="6.8" height="1.8" rx="0.9" fill="#b8322a"/><rect x="27.3" y="18.65" width="5.4" height="0.7" fill="#f8f8f4" opacity="0.8"/><rect x="26.6" y="24.9" width="6.8" height="1.8" rx="0.9" fill="#b8322a"/><rect x="27.3" y="25.45" width="5.4" height="0.7" fill="#f8f8f4" opacity="0.8"/><rect x="15.3" y="32" width="5.4" height="16" rx="2.7" fill="#4a78b8"/><rect x="17.4" y="34.4" width="1.2" height="11.2" rx="0.6" fill="#f8f8f4" opacity="0.55"/><rect x="14.6" y="32.3" width="6.8" height="1.8" rx="0.9" fill="#4a78b8"/><rect x="15.3" y="32.85" width="5.4" height="0.7" fill="#f8f8f4" opacity="0.8"/><rect x="14.6" y="39.1" width="6.8" height="1.8" rx="0.9" fill="#4a78b8"/><rect x="15.3" y="39.65" width="5.4" height="0.7" fill="#f8f8f4" opacity="0.8"/><rect x="14.6" y="45.9" width="6.8" height="1.8" rx="0.9" fill="#4a78b8"/><rect x="15.3" y="46.45" width="5.4" height="0.7" fill="#f8f8f4" opacity="0.8"/><rect x="27.3" y="32" width="5.4" height="16" rx="2.7" fill="#4a78b8"/><rect x="29.4" y="34.4" width="1.2" height="11.2" rx="0.6" fill="#f8f8f4" opacity="0.55"/><rect x="26.6" y="32.3" width="6.8" height="1.8" rx="0.9" fill="#4a78b8"/><rect x="27.3" y="32.85" width="5.4" height="0.7" fill="#f8f8f4" opacity="0.8"/><rect x="26.6" y="39.1" width="6.8" height="1.8" rx="0.9" fill="#4a78b8"/><rect x="27.3" y="39.65" width="5.4" height="0.7" fill="#f8f8f4" opacity="0.8"/><rect x="26.6" y="45.9" width="6.8" height="1.8" rx="0.9" fill="#4a78b8"/><rect x="27.3" y="46.45" width="5.4" height="0.7" fill="#f8f8f4" opacity="0.8"/><rect x="39.3" y="32" width="5.4" height="16" rx="2.7" fill="#4a78b8"/><rect x="41.4" y="34.4" width="1.2" height="11.2" rx="0.6" fill="#f8f8f4" opacity="0.55"/><rect x="38.6" y="32.3" width="6.8" height="1.8" rx="0.9" fill="#4a78b8"/><rect x="39.3" y="32.85" width="5.4" height="0.7" fill="#f8f8f4" opacity="0.8"/><rect x="38.6" y="39.1" width="6.8" height="1.8" rx="0.9" fill="#4a78b8"/><rect x="39.3" y="39.65" width="5.4" height="0.7" fill="#f8f8f4" opacity="0.8"/><rect x="38.6" y="45.9" width="6.8" height="1.8" rx="0.9" fill="#4a78b8"/><rect x="39.3" y="46.45" width="5.4" height="0.7" fill="#f8f8f4" opacity="0.8"/><rect x="15.3" y="52" width="5.4" height="16" rx="2.7" fill="#1f4f9a"/><rect x="17.4" y="54.4" width="1.2" height="11.2" rx="0.6" fill="#f8f8f4" opacity="0.55"/><rect x="14.6" y="52.3" width="6.8" height="1.8" rx="0.9" fill="#1f4f9a"/><rect x="15.3" y="52.85" width="5.4" height="0.7" fill="#f8f8f4" opacity="0.8"/><rect x="14.6" y="59.1" width="6.8" height="1.8" rx="0.9" fill="#1f4f9a"/><rect x="15.3" y="59.65" width="5.4" height="0.7" fill="#f8f8f4" opacity="0.8"/><rect x="14.6" y="65.9" width="6.8" height="1.8" rx="0.9" fill="#1f4f9a"/><rect x="15.3" y="66.45" width="5.4" height="0.7" fill="#f8f8f4" opacity="0.8"/><rect x="27.3" y="52" width="5.4" height="16" rx="2.7" fill="#1f4f9a"/><rect x="29.4" y="54.4" width="1.2" height="11.2" rx="0.6" fill="#f8f8f4" opacity="0.55"/><rect x="26.6" y="52.3" width="6.8" height="1.8" rx="0.9" fill="#1f4f9a"/><rect x="27.3" y="52.85" width="5.4" height="0.7" fill="#f8f8f4" opacity="0.8"/><rect x="26.6" y="59.1" width="6.8" height="1.8" rx="0.9" fill="#1f4f9a"/><rect x="27.3" y="59.65" width="5.4" height="0.7" fill="#f8f8f4" opacity="0.8"/><rect x="26.6" y="65.9" width="6.8" height="1.8" rx="0.9" fill="#1f4f9a"/><rect x="27.3" y="66.45" width="5.4" height="0.7" fill="#f8f8f4" opacity="0.8"/><rect x="39.3" y="52" width="5.4" height="16" rx="2.7" fill="#1f4f9a"/><rect x="41.4" y="54.4" width="1.2" height="11.2" rx="0.6" fill="#f8f8f4" opacity="0.55"/><rect x="38.6" y="52.3" width="6.8" height="1.8" rx="0.9" fill="#1f4f9a"/><rect x="39.3" y="52.85" width="5.4" height="0.7" fill="#f8f8f4" opacity="0.8"/><rect x="38.6" y="59.1" width="6.8" height="1.8" rx="0.9" fill="#1f4f9a"/><rect x="39.3" y="59.65" width="5.4" height="0.7" fill="#f8f8f4" opacity="0.8"/><rect x="38.6" y="65.9" width="6.8" height="1.8" rx="0.9" fill="#1f4f9a"/><rect x="39.3" y="66.45" width="5.4" height="0.7" fill="#f8f8f4" opacity="0.8"/><text x="5.6" y="11.6" font-size="8.6" font-weight="600" font-family="'IBM Plex Mono',ui-monospace,monospace" fill="#4a78b8">7</text><rect x="12.5" y="5.4" width="2.2" height="6.4" rx="1.1" fill="#4a78b8"/></svg>