<svg xmlns="http://www.w3.org/2000/svg" viewBox="0 0 60 80"><rect x="2" y="6" width="56" height="72" rx="7" fill="#2c4f8f" stroke="#1e3f7a" stroke-width="1.5"/><rect x="2" y="2" width="56" height="72" rx="7" fill="#f8f8f4" stroke="#1e3f7a" stroke-width="1.5"/><circle cx="19" cy="27" r="8.5" fill="#1f4f9a"/><circle cx="19" cy="27" r="5.61" fill="#f8f8f4"/><circle cx="19" cy="27" r="3.74" fill="#1f4f9a"/><circle cx="19" cy="27" r="1.27" fill="#f8f8f4"/><circle cx="41" cy="27" r="8.5" fill="#4a78b8"/><circle cx="41" cy="27" r="5.61" fill="#f8f8f4"/><circle cx="41" cy="27" r="3.74" fill="#4a78b8"/><circle cx="41" cy="27" r="1.27" fill="#f8f8f4"/><circle cx="19" cy="53" r="8.5" fill="#4a78b8"/><circle cx="19" cy="53" r="5.61" fill="#f8f8f4"/><circle cx="19" cy="53" r="3.74" fill="#4a78b8"/><circle cx="19" cy="53" r="1.27" fill="#f8f8f4"/><circle cx="41" cy="53" r="8.5" fill="#1f4f9a"/><circle cx="41" cy="53" r="5.61" fill="#f8f8f4"/><circle cx="41" cy="53" r="3.74" fill="#1f4f9a"/><circle cx="41" cy="53" r="1.27" fill="#f8f8f4"/><text x="5.6" y="11.6" font-size="8.6" font-weight="600" font-family="'IBM Plex Mono',ui-monospace,monospace" fill="#1f4f9a">4</text><circle cx="13.4" cy="8.4" r="1.9" fill="#1f4f9a"/></svg>