<svg xmlns="http://www.w3.org/2000/svg" viewBox="0 0 60 80"><rect x="2" y="6" width="56" height="72" rx="7" fill="#2c4f8f" stroke="#1e3f7a" stroke-width="1.5"/><rect x="2" y="2" width="56" height="72" rx="7" fill="#f8f8f4" stroke="#1e3f7a" stroke-width="1.5"/><circle cx="17" cy="21" r="5.8" fill="#4a78b8"/><circle cx="17" cy="21" r="3.83" fill="#f8f8f4"/><circle cx="17" cy="21" r="2.55" fill="#4a78b8"/><circle cx="17" cy="21" r="0.87" fill="#f8f8f4"/><circle cx="30" cy="28" r="5.8" fill="#4a78b8"/><circle cx="30" cy="28" r="3.83" fill="#f8f8f4"/><circle cx="30" cy="28" r="2.55" fill="#4a78b8"/><circle cx="30" cy="28" r="0.87" fill="#f8f8f4"/><circle cx="43" cy="35" r="5.8" fill="#4a78b8"/><circle cx="43" cy="35" r="3.83" fill="#f8f8f4"/><circle cx="43" cy="35" r="2.55" fill="#4a78b8"/><circle cx="43" cy="35" r="0.87" fill="#f8f8f4"/><circle cx="21" cy="50" r="5.8" fill="#b8322a"/><circle cx="21" cy="50" r="3.83" fill="#f8f8f4"/><circle cx="21" cy="50" r="2.55" fill="#b8322a"/><circle cx="21" cy="50" r="0.87" fill="#f8f8f4"/><circle cx="39" cy="50" r="5.8" fill="#b8322a"/><circle cx="39" cy="50" r="3.83" fill="#f8f8f4"/><circle cx="39" cy="50" r="2.55" fill="#b8322a"/><circle cx="39" cy="50" r="0.87" fill="#f8f8f4"/><circle cx="21" cy="63" r="5.8" fill="#b8322a"/><circle cx="21" cy="63" r="3.83" fill="#f8f8f4"/><circle cx="21" cy="63" r="2.55" fill="#b8322a"/><circle cx="21" cy="63" r="0.87" fill="#f8f8f4"/><circle cx="39" cy="63" r="5.8" fill="#b8322a"/><circle cx="39" cy="63" r="3.83" fill="#f8f8f4"/><circle cx="39" cy="63" r="2.55" fill="#b8322a"/><circle cx="39" cy="63" r="0.87" fill="#f8f8f4"/><text x="5.6" y="11.6" font-size="8.6" font-weight="600" font-family="'IBM Plex Mono',ui-monospace,monospace" fill="#1f4f9a">7</text><circle cx="13.4" cy="8.4" r="1.9" fill="#1f4f9a"/></svg>