<svg xmlns="http://www.w3.org/2000/svg" viewBox="0 0 60 80"><rect x="2" y="6" width="56" height="72" rx="7" fill="#2c4f8f" stroke="#1e3f7a" stroke-width="1.5"/><rect x="2" y="2" width="56" height="72" rx="7" fill="#f8f8f4" stroke="#1e3f7a" stroke-width="1.5"/><circle cx="48.5" cy="40" r="2.6" fill="#1f4f9a"/><circle cx="46.02" cy="49.25" r="2.6" fill="#4a78b8"/><circle cx="39.25" cy="56.02" r="2.6" fill="#1f4f9a"/><circle cx="30" cy="58.5" r="2.6" fill="#4a78b8"/><circle cx="20.75" cy="56.02" r="2.6" fill="#1f4f9a"/><circle cx="13.98" cy="49.25" r="2.6" fill="#4a78b8"/><circle cx="11.5" cy="40" r="2.6" fill="#1f4f9a"/><circle cx="13.98" cy="30.75" r="2.6" fill="#4a78b8"/><circle cx="20.75" cy="23.98" r="2.6" fill="#1f4f9a"/><circle cx="30" cy="21.5" r="2.6" fill="#4a78b8"/><circle cx="39.25" cy="23.98" r="2.6" fill="#1f4f9a"/><circle cx="46.02" cy="30.75" r="2.6" fill="#4a78b8"/><circle cx="30" cy="40" r="15" fill="#1f4f9a"/><circle cx="30" cy="40" r="12.2" fill="#f8f8f4"/><circle cx="30" cy="40" r="10" fill="#b8322a"/><circle cx="36.4" cy="40" r="1.7" fill="#f8f8f4"/><circle cx="34.53" cy="44.53" r="1.7" fill="#f8f8f4"/><circle cx="30" cy="46.4" r="1.7" fill="#f8f8f4"/><circle cx="25.47" cy="44.53" r="1.7" fill="#f8f8f4"/><circle cx="23.6" cy="40" r="1.7" fill="#f8f8f4"/><circle cx="25.47" cy="35.47" r="1.7" fill="#f8f8f4"/><circle cx="30" cy="33.6" r="1.7" fill="#f8f8f4"/><circle cx="34.53" cy="35.47" r="1.7" fill="#f8f8f4"/><circle cx="30" cy="40" r="3" fill="#f8f8f4"/><text x="5.6" y="11.6" font-size="8.6" font-weight="600" font-family="'IBM Plex Mono',ui-monospace,monospace" fill="#1f4f9a">1</text><circle cx="13.4" cy="8.4" r="1.9" fill="#1f4f9a"/></svg>