<svg xmlns="http://www.w3.org/2000/svg" viewBox="0 0 100 110"><path d="M40 92 L39 97 M60 92 L61 97" stroke="#f8f8f4" stroke-width="5.6" fill="none" stroke-linecap="round" stroke-linejoin="round"/><path d="M40 92 L39 97 M60 92 L61 97" stroke="#1e3f7a" stroke-width="3.2" fill="none" stroke-linecap="round" stroke-linejoin="round"/><ellipse cx="38" cy="99" rx="7" ry="3.6" fill="#1e3f7a" stroke="#f8f8f4" stroke-width="1.2"/><ellipse cx="62" cy="99" rx="7" ry="3.6" fill="#1e3f7a" stroke="#f8f8f4" stroke-width="1.2"/><path d="M21 54 Q9 52 4 44" stroke="#f8f8f4" stroke-width="5.6" fill="none" stroke-linecap="round" stroke-linejoin="round"/><path d="M21 54 Q9 52 4 44" stroke="#1e3f7a" stroke-width="3.2" fill="none" stroke-linecap="round" stroke-linejoin="round"/><path d="M79 54 Q91 52 96 44" stroke="#f8f8f4" stroke-width="5.6" fill="none" stroke-linecap="round" stroke-linejoin="round"/><path d="M79 54 Q91 52 96 44" stroke="#1e3f7a" stroke-width="3.2" fill="none" stroke-linecap="round" stroke-linejoin="round"/><g transform="translate(20 12)"><rect x="2" y="6" width="56" height="72" rx="7" fill="#2c4f8f" stroke="#1e3f7a" stroke-width="1.5"/><rect x="2" y="2" width="56" height="72" rx="7" fill="#f8f8f4" stroke="#1e3f7a" stroke-width="1.5"/><ellipse cx="19" cy="21" rx="4.2" ry="5.6" fill="#1e3f7a"/><circle cx="20.2" cy="19.2" r="1.3" fill="#f8f8f4"/><ellipse cx="41" cy="21" rx="4.2" ry="5.6" fill="#1e3f7a"/><circle cx="42.2" cy="19.2" r="1.3" fill="#f8f8f4"/><ellipse cx="15" cy="28" rx="3.4" ry="2" fill="#6f93c9" opacity="0.55"/><ellipse cx="45" cy="28" rx="3.4" ry="2" fill="#6f93c9" opacity="0.55"/><ellipse cx="30" cy="30" rx="3" ry="3.8" fill="#1e3f7a"/><text x="30" y="66" font-size="28" fill="#b8322a" text-anchor="middle" font-family="'Noto Serif SC','Songti SC','SimSun',serif" font-weight="900">中</text></g><circle cx="4" cy="42" r="3.6" fill="#f8f8f4" stroke="#1e3f7a" stroke-width="1.6"/><circle cx="96" cy="42" r="3.6" fill="#f8f8f4" stroke="#1e3f7a" stroke-width="1.6"/></svg>